<svg height="auto" viewBox="0 0 2000 1000" xmlns="http://www.w3.org/2000/svg"><path d="M0 211.928c21-19.616 63-200.539 105-98.081 42 102.458 63 596.18 105 610.37 42 14.192 63-460.032 105-539.416 42-79.383 63 80.067 105 142.499s63 179.874 105 169.662c42-10.213 63-247.657 105-220.724 42 26.932 63 354.145 105 355.387 42 1.242 63-267.496 105-349.179 42-81.683 63-60.022 105-59.237 42 .786 63 45.973 105 63.163 42 17.19 63-73.997 105 22.786s63 431.435 105 461.127c42 29.693 63-179.705 105-312.665s63-374.51 105-352.136c42 22.375 63 449.783 105 464.008 42 14.224 63-431.47 105-392.885 42 38.584 63 506.052 105 585.806 42 79.754 63-80.117 105-187.036s84-278.046 105-347.558l5 772.181H0Z" fill="#444cf71a"/><path d="M0 211.928c21-19.616 63-200.539 105-98.081 42 102.458 63 596.18 105 610.37 42 14.192 63-460.032 105-539.416 42-79.383 63 80.067 105 142.499s63 179.874 105 169.662c42-10.213 63-247.657 105-220.724 42 26.932 63 354.145 105 355.387 42 1.242 63-267.496 105-349.179 42-81.683 63-60.022 105-59.237 42 .786 63 45.973 105 63.163 42 17.19 63-73.997 105 22.786s63 431.435 105 461.127c42 29.693 63-179.705 105-312.665s63-374.51 105-352.136c42 22.375 63 449.783 105 464.008 42 14.224 63-431.47 105-392.885 42 38.584 63 506.052 105 585.806 42 79.754 63-80.117 105-187.036s84-278.046 105-347.558" fill="none" stroke="#444cf7" stroke-width="4"/><g fill="#444cf7"><circle cy="211.928" r="8"/><circle cx="105" cy="113.847" r="8"/><circle cx="210" cy="724.218" r="8"/><circle cx="315" cy="184.801" r="8"/><circle cx="420" cy="327.3" r="8"/><circle cx="525" cy="496.962" r="8"/><circle cx="630" cy="276.238" r="8"/><circle cx="735" cy="631.625" r="8"/><circle cx="840" cy="282.446" r="8"/><circle cx="945" cy="223.209" r="8"/><circle cx="1050" cy="286.372" r="8"/><circle cx="1155" cy="309.158" r="8"/><circle cx="1260" cy="770.285" r="8"/><circle cx="1365" cy="457.62" r="8"/><circle cx="1470" cy="105.484" r="8"/><circle cx="1575" cy="569.492" r="8"/><circle cx="1680" cy="176.607" r="8"/><circle cx="1785" cy="762.413" r="8"/><circle cx="1890" cy="575.377" r="8"/><circle cx="1995" cy="227.819" r="8"/></g></svg>