<svg height="auto" viewBox="0 0 2000 1000" xmlns="http://www.w3.org/2000/svg"><path d="M0 333.886c21 22.64 63 127.752 105 113.194 42-14.557 63-252.374 105-185.98 42 66.393 63 482.614 105 517.947 42 35.334 63-336.28 105-341.28 42-5.002 63 351.822 105 316.273 42-35.548 63-412.026 105-494.016 42-81.99 63 92.706 105 84.067 42-8.639 63-176.08 105-127.261 42 48.818 63 358.66 105 371.353 42 12.694 63-300.944 105-307.883 42-6.94 63 295.984 105 273.184 42-22.8 63-386.612 105-387.188 42-.575 63 270.852 105 384.31 42 113.459 63 268.881 105 182.981 42-85.9 63-603.972 105-612.48 42-8.508 63 523.294 105 569.94 42 46.647 63-331.217 105-336.71 42-5.491 63 296.642 105 309.249 42 12.607 84-196.972 105-246.214l5 582.628H0Z" fill="#444cf71a"/><path d="M0 333.886c21 22.64 63 127.752 105 113.194 42-14.557 63-252.374 105-185.98 42 66.393 63 482.614 105 517.947 42 35.334 63-336.28 105-341.28 42-5.002 63 351.822 105 316.273 42-35.548 63-412.026 105-494.016 42-81.99 63 92.706 105 84.067 42-8.639 63-176.08 105-127.261 42 48.818 63 358.66 105 371.353 42 12.694 63-300.944 105-307.883 42-6.94 63 295.984 105 273.184 42-22.8 63-386.612 105-387.188 42-.575 63 270.852 105 384.31 42 113.459 63 268.881 105 182.981 42-85.9 63-603.972 105-612.48 42-8.508 63 523.294 105 569.94 42 46.647 63-331.217 105-336.71 42-5.491 63 296.642 105 309.249 42 12.607 84-196.972 105-246.214" fill="none" stroke="#444cf7" stroke-width="4"/><g fill="#444cf7"><circle cy="333.886" r="8"/><circle cx="105" cy="447.08" r="8"/><circle cx="210" cy="261.1" r="8"/><circle cx="315" cy="779.047" r="8"/><circle cx="420" cy="437.766" r="8"/><circle cx="525" cy="754.04" r="8"/><circle cx="630" cy="260.024" r="8"/><circle cx="735" cy="344.091" r="8"/><circle cx="840" cy="216.83" r="8"/><circle cx="945" cy="588.183" r="8"/><circle cx="1050" cy="280.3" r="8"/><circle cx="1155" cy="553.484" r="8"/><circle cx="1260" cy="166.296" r="8"/><circle cx="1365" cy="550.606" r="8"/><circle cx="1470" cy="733.587" r="8"/><circle cx="1575" cy="121.107" r="8"/><circle cx="1680" cy="691.048" r="8"/><circle cx="1785" cy="354.338" r="8"/><circle cx="1890" cy="663.586" r="8"/><circle cx="1995" cy="417.372" r="8"/></g></svg>