<svg height="auto" viewBox="0 0 2000 1000" xmlns="http://www.w3.org/2000/svg"><path d="M0 463.395c21 4.819 63-5.774 105 24.09 42 29.866 63 103.673 105 125.237 42 21.564 63 8.705 105-17.415 42-26.12 63-50.503 105-113.187 42-62.683 63-185.112 105-200.23 42-15.12 63 57.744 105 124.638 42 66.893 63 147.485 105 209.83s63 137.546 105 101.894c42-35.651 63-210.083 105-280.152 42-70.068 63-94.322 105-70.19 42 24.13 63 167.735 105 190.848 42 23.112 63-7.332 105-75.286 42-67.954 63-263.617 105-264.485 42-.87 63 248.109 105 260.14 42 12.033 63-133.184 105-199.978 42-66.795 63-172.55 105-133.994 42 38.557 63 229.984 105 326.775 42 96.791 63 177.586 105 157.181 42-20.404 84-207.363 105-259.204l5 630.093H0Z" fill="#444cf71a"/><path d="M0 463.395c21 4.819 63-5.774 105 24.09 42 29.866 63 103.673 105 125.237 42 21.564 63 8.705 105-17.415 42-26.12 63-50.503 105-113.187 42-62.683 63-185.112 105-200.23 42-15.12 63 57.744 105 124.638 42 66.893 63 147.485 105 209.83s63 137.546 105 101.894c42-35.651 63-210.083 105-280.152 42-70.068 63-94.322 105-70.19 42 24.13 63 167.735 105 190.848 42 23.112 63-7.332 105-75.286 42-67.954 63-263.617 105-264.485 42-.87 63 248.109 105 260.14 42 12.033 63-133.184 105-199.978 42-66.795 63-172.55 105-133.994 42 38.557 63 229.984 105 326.775 42 96.791 63 177.586 105 157.181 42-20.404 84-207.363 105-259.204" fill="none" stroke="#444cf7" stroke-width="4"/><g fill="#444cf7"><circle cy="463.395" r="8"/><circle cx="105" cy="487.486" r="8"/><circle cx="210" cy="612.722" r="8"/><circle cx="315" cy="595.307" r="8"/><circle cx="420" cy="482.12" r="8"/><circle cx="525" cy="281.889" r="8"/><circle cx="630" cy="406.528" r="8"/><circle cx="735" cy="616.358" r="8"/><circle cx="840" cy="718.252" r="8"/><circle cx="945" cy="438.1" r="8"/><circle cx="1050" cy="367.909" r="8"/><circle cx="1155" cy="558.758" r="8"/><circle cx="1260" cy="483.472" r="8"/><circle cx="1365" cy="218.987" r="8"/><circle cx="1470" cy="479.128" r="8"/><circle cx="1575" cy="279.149" r="8"/><circle cx="1680" cy="145.155" r="8"/><circle cx="1785" cy="471.93" r="8"/><circle cx="1890" cy="629.111" r="8"/><circle cx="1995" cy="369.907" r="8"/></g></svg>