<svg height="auto" viewBox="0 0 2000 1000" xmlns="http://www.w3.org/2000/svg"><path d="M0 697.279c21-47.148 63-218.456 105-235.736s63 163.966 105 149.338c42-14.628 63-181.587 105-222.48s63 2.466 105 18.014c42 15.548 63 105.546 105 59.725 42-45.82 63-218.822 105-288.829 42-70.006 63-166.837 105-61.204 42 105.634 63 523.891 105 589.37 42 65.48 63-167.573 105-261.973s63-182.877 105-210.027c42-27.15 63 56.087 105 74.276 42 18.188 63-47.854 105 16.667 42 64.52 63 252.244 105 305.937 42 53.692 63 15.874 105-37.473 42-53.348 63-219.586 105-229.263 42-9.677 63 110.97 105 180.877 42 69.907 63 242.842 105 168.66 42-74.183 63-480.028 105-539.571 42-59.543 84 193.483 105 241.854l5 584.559H0Z" fill="#444cf71a"/><path d="M0 697.279c21-47.148 63-218.456 105-235.736s63 163.966 105 149.338c42-14.628 63-181.587 105-222.48s63 2.466 105 18.014c42 15.548 63 105.546 105 59.725 42-45.82 63-218.822 105-288.829 42-70.006 63-166.837 105-61.204 42 105.634 63 523.891 105 589.37 42 65.48 63-167.573 105-261.973s63-182.877 105-210.027c42-27.15 63 56.087 105 74.276 42 18.188 63-47.854 105 16.667 42 64.52 63 252.244 105 305.937 42 53.692 63 15.874 105-37.473 42-53.348 63-219.586 105-229.263 42-9.677 63 110.97 105 180.877 42 69.907 63 242.842 105 168.66 42-74.183 63-480.028 105-539.571 42-59.543 84 193.483 105 241.854" fill="none" stroke="#444cf7" stroke-width="4"/><g fill="#444cf7"><circle cy="697.279" r="8"/><circle cx="105" cy="461.543" r="8"/><circle cx="210" cy="610.881" r="8"/><circle cx="315" cy="388.401" r="8"/><circle cx="420" cy="406.415" r="8"/><circle cx="525" cy="466.14" r="8"/><circle cx="630" cy="177.311" r="8"/><circle cx="735" cy="116.107" r="8"/><circle cx="840" cy="705.477" r="8"/><circle cx="945" cy="443.504" r="8"/><circle cx="1050" cy="233.477" r="8"/><circle cx="1155" cy="307.753" r="8"/><circle cx="1260" cy="324.42" r="8"/><circle cx="1365" cy="630.357" r="8"/><circle cx="1470" cy="592.884" r="8"/><circle cx="1575" cy="363.621" r="8"/><circle cx="1680" cy="544.498" r="8"/><circle cx="1785" cy="713.157" r="8"/><circle cx="1890" cy="173.587" r="8"/><circle cx="1995" cy="415.441" r="8"/></g></svg>