<svg height="auto" viewBox="0 0 2000 1000" xmlns="http://www.w3.org/2000/svg"><path d="M0 442.593c21-48.32 63-239.836 105-241.596 42-1.76 63 176.435 105 232.797 42 56.363 63-5.712 105 49.015 42 54.728 63 248.332 105 224.623 42-23.708 63-232.378 105-343.163 42-110.786 63-229.63 105-210.763 42 18.868 63 189.066 105 305.102 42 116.036 63 227.888 105 275.078 42 47.19 63 74.694 105-39.13 42-113.823 63-504.59 105-529.986 42-25.395 63 323.645 105 403.01 42 79.366 63-41.804 105-6.182s63 142.924 105 184.294c42 41.37 63 137.065 105 22.555 42-114.509 63-519.905 105-595.101 42-75.196 63 176.892 105 219.12 42 42.228 63 16.814 105-7.982s63-114.822 105-116c42-1.178 84 88.088 105 110.11l5 621.606H0Z" fill="#444cf71a"/><path d="M0 442.593c21-48.32 63-239.836 105-241.596 42-1.76 63 176.435 105 232.797 42 56.363 63-5.712 105 49.015 42 54.728 63 248.332 105 224.623 42-23.708 63-232.378 105-343.163 42-110.786 63-229.63 105-210.763 42 18.868 63 189.066 105 305.102 42 116.036 63 227.888 105 275.078 42 47.19 63 74.694 105-39.13 42-113.823 63-504.59 105-529.986 42-25.395 63 323.645 105 403.01 42 79.366 63-41.804 105-6.182s63 142.924 105 184.294c42 41.37 63 137.065 105 22.555 42-114.509 63-519.905 105-595.101 42-75.196 63 176.892 105 219.12 42 42.228 63 16.814 105-7.982s63-114.822 105-116c42-1.178 84 88.088 105 110.11" fill="none" stroke="#444cf7" stroke-width="4"/><g fill="#444cf7"><circle cy="442.593" r="8"/><circle cx="105" cy="200.997" r="8"/><circle cx="210" cy="433.794" r="8"/><circle cx="315" cy="482.809" r="8"/><circle cx="420" cy="707.432" r="8"/><circle cx="525" cy="364.269" r="8"/><circle cx="630" cy="153.506" r="8"/><circle cx="735" cy="458.608" r="8"/><circle cx="840" cy="733.686" r="8"/><circle cx="945" cy="694.556" r="8"/><circle cx="1050" cy="164.57" r="8"/><circle cx="1155" cy="567.581" r="8"/><circle cx="1260" cy="561.398" r="8"/><circle cx="1365" cy="745.692" r="8"/><circle cx="1470" cy="768.247" r="8"/><circle cx="1575" cy="173.146" r="8"/><circle cx="1680" cy="392.266" r="8"/><circle cx="1785" cy="384.284" r="8"/><circle cx="1890" cy="268.284" r="8"/><circle cx="1995" cy="378.393" r="8"/></g></svg>