<svg height="auto" viewBox="0 0 2000 1000" xmlns="http://www.w3.org/2000/svg"><path d="M0 337.28c21-4.955 63-64.876 105-24.772 42 40.103 63 207.897 105 225.288 42 17.392 63-123.534 105-138.331 42-14.798 63 122.762 105 64.344 42-58.417 63-337.351 105-356.432 42-19.081 63 123.38 105 261.027s63 465.647 105 427.207 63-595.454 105-619.404c42-23.95 63 434.465 105 499.657 42 65.192 63-138.419 105-173.696 42-35.277 63-35.098 105-2.69s63 118.217 105 164.73c42 46.513 63 45.129 105 67.836 42 22.706 63 101.828 105 45.697 42-56.13 63-318.05 105-326.35 42-8.3 63 222.443 105 284.85 42 62.407 63 66.32 105 27.185 42-39.135 63-221.79 105-222.86 42-1.07 84 174.007 105 217.508l5 241.926H0Z" fill="#444cf71a"/><path d="M0 337.28c21-4.955 63-64.876 105-24.772 42 40.103 63 207.897 105 225.288 42 17.392 63-123.534 105-138.331 42-14.798 63 122.762 105 64.344 42-58.417 63-337.351 105-356.432 42-19.081 63 123.38 105 261.027s63 465.647 105 427.207 63-595.454 105-619.404c42-23.95 63 434.465 105 499.657 42 65.192 63-138.419 105-173.696 42-35.277 63-35.098 105-2.69s63 118.217 105 164.73c42 46.513 63 45.129 105 67.836 42 22.706 63 101.828 105 45.697 42-56.13 63-318.05 105-326.35 42-8.3 63 222.443 105 284.85 42 62.407 63 66.32 105 27.185 42-39.135 63-221.79 105-222.86 42-1.07 84 174.007 105 217.508" fill="none" stroke="#444cf7" stroke-width="4"/><g fill="#444cf7"><circle cy="337.28" r="8"/><circle cx="105" cy="312.508" r="8"/><circle cx="210" cy="537.796" r="8"/><circle cx="315" cy="399.465" r="8"/><circle cx="420" cy="463.809" r="8"/><circle cx="525" cy="107.377" r="8"/><circle cx="630" cy="368.404" r="8"/><circle cx="735" cy="795.611" r="8"/><circle cx="840" cy="176.207" r="8"/><circle cx="945" cy="675.864" r="8"/><circle cx="1050" cy="502.168" r="8"/><circle cx="1155" cy="499.478" r="8"/><circle cx="1260" cy="664.208" r="8"/><circle cx="1365" cy="732.044" r="8"/><circle cx="1470" cy="777.741" r="8"/><circle cx="1575" cy="451.391" r="8"/><circle cx="1680" cy="736.241" r="8"/><circle cx="1785" cy="763.426" r="8"/><circle cx="1890" cy="540.566" r="8"/><circle cx="1995" cy="758.074" r="8"/></g></svg>