<svg width="30" height="24" viewBox="0 0 30 24" fill="none" xmlns="http://www.w3.org/2000/svg">
<path fill-rule="evenodd" clip-rule="evenodd" d="M19.8207 0.111516L19.5749 -0.00390625L19.3308 0.115034L15.114 2.16964L10.8668 0.12143L10.6219 0.00331271L10.3763 0.120164L1.45772 4.36448L0.400906 4.86742L1.45018 5.3859L4.89422 7.08773L1.42563 8.74234L0.34375 9.25842L1.42855 9.76834L5.54888 11.7051V18.4705V18.8266L5.86955 18.9815L14.8687 23.3299L15.1148 23.4488L15.3611 23.3306L24.2414 19.0715L24.5636 18.917V18.5597V11.7835L28.7568 9.7276L29.818 9.20728L28.7484 8.70429L25.2813 7.07376L28.7674 5.32811L29.8137 4.80417L28.7545 4.30678L19.8207 0.111516ZM6.68412 18.1143V12.2388L10.3937 13.9825L10.6381 14.0973L10.8813 13.9803L14.5481 12.2159V21.9142L6.68412 18.1143ZM15.6833 21.9171V12.2423L19.3106 14.1047L19.564 14.2348L19.8197 14.1094L23.4283 12.3401V18.2024L15.6833 21.9171ZM16.4162 2.79798L19.584 1.25451L27.2128 4.83696L23.9772 6.45715L16.4162 2.79798ZM15.1139 3.42993L15.1166 3.43122L15.1176 3.43072L22.6872 7.09403L15.1245 10.6793L15.1239 10.679L15.1144 10.6835L7.50533 7.09402L15.1139 3.42993ZM13.8066 2.79948L10.6186 1.26209L3.00236 4.88663L6.19583 6.46463L13.8066 2.79948ZM6.18858 7.72807L2.99629 9.25087L10.6323 12.8403L13.7972 11.3174L6.18858 7.72807ZM16.3967 11.3325L19.5757 12.9647L27.1958 9.22861L24.0024 7.72685L16.3967 11.3325Z" fill="white"/>
</svg>
