<svg width="63" height="35" viewBox="0 0 63 35" fill="none" xmlns="http://www.w3.org/2000/svg">
<path id="Union" fill-rule="evenodd" clip-rule="evenodd" d="M0.852164 17.5449C0.852164 17.1307 1.18795 16.7949 1.60216 16.7949L60.1282 16.7949L45.3714 2.03814C45.0785 1.74525 45.0785 1.27038 45.3714 0.977482C45.6643 0.684588 46.1392 0.684589 46.4321 0.977482L62.4469 16.9923C62.4546 16.9994 62.4622 17.0067 62.4696 17.0141C62.6087 17.1532 62.6818 17.3334 62.6887 17.5157C62.6967 17.7174 62.6237 17.9217 62.4696 18.0757C62.4619 18.0835 62.454 18.091 62.446 18.0984L46.432 34.1124C46.1391 34.4053 45.6643 34.4053 45.3714 34.1124C45.0785 33.8195 45.0785 33.3446 45.3714 33.0517L60.1282 18.2949L1.60216 18.2949C1.18795 18.2949 0.852164 17.9591 0.852164 17.5449Z" fill="white"/>
</svg>
