<svg width="63" height="35" viewBox="0 0 63 35" fill="none" xmlns="http://www.w3.org/2000/svg">
<path id="Union" fill-rule="evenodd" clip-rule="evenodd" d="M62.7499 17.5449C62.7499 17.9591 62.4141 18.2949 61.9999 18.2949L3.47387 18.2949L18.2307 33.0517C18.5235 33.3446 18.5235 33.8195 18.2307 34.1124C17.9378 34.4053 17.4629 34.4053 17.17 34.1124L1.15522 18.0976C1.14751 18.0905 1.13992 18.0832 1.13244 18.0757C0.992167 17.9355 0.91907 17.7534 0.91316 17.5697C0.906465 17.3694 0.979548 17.167 1.13241 17.0141C1.14015 17.0064 1.14801 16.9988 1.15599 16.9915L17.17 0.977483C17.4629 0.68459 17.9378 0.684589 18.2307 0.977483C18.5236 1.27038 18.5236 1.74525 18.2307 2.03814L3.47391 16.7949L61.9999 16.7949C62.4141 16.7949 62.7499 17.1307 62.7499 17.5449Z" fill="white"/>
</svg>
