<svg width="35" height="34" viewBox="0 0 35 34" fill="none" xmlns="http://www.w3.org/2000/svg">
<path id="Union" fill-rule="evenodd" clip-rule="evenodd" d="M0.744586 17.4077C0.451693 17.1148 0.451693 16.6399 0.744586 16.347L16.7809 0.310671C16.7813 0.310267 16.7817 0.309864 16.7821 0.309461C16.7821 0.309449 16.7822 0.309439 16.7822 0.309427C16.8441 0.247466 16.9142 0.198613 16.989 0.162867C17.2678 0.0296408 17.6119 0.0784947 17.8428 0.309427C17.8449 0.311484 17.8469 0.31355 17.849 0.315624L33.8804 16.347C34.1733 16.6399 34.1733 17.1148 33.8804 17.4077C33.5875 17.7006 33.1126 17.7006 32.8197 17.4077L18.0625 2.65044L18.0625 32.5924C18.0625 33.0066 17.7267 33.3424 17.3125 33.3424C16.8982 33.3424 16.5625 33.0066 16.5625 32.5924L16.5625 2.65046L1.80525 17.4077C1.51235 17.7006 1.03748 17.7006 0.744586 17.4077Z" fill="#FFED00"/>
</svg>
